<svg width="90" height="27" viewBox="0 0 90 27" fill="none" xmlns="http://www.w3.org/2000/svg">
<path d="M21.5508 4.67773H13.7109V26H8.4375V4.67773H0.703125V0.40625H21.5508V4.67773ZM19.793 16.3145C19.793 14.4277 20.1562 12.7461 20.8828 11.2695C21.6094 9.79297 22.6523 8.65039 24.0117 7.8418C25.3828 7.0332 26.9707 6.62891 28.7754 6.62891C31.3418 6.62891 33.4336 7.41406 35.0508 8.98438C36.6797 10.5547 37.5879 12.6875 37.7754 15.3828L37.8105 16.6836C37.8105 19.6016 36.9961 21.9453 35.3672 23.7148C33.7383 25.4727 31.5527 26.3516 28.8105 26.3516C26.0684 26.3516 23.877 25.4727 22.2363 23.7148C20.6074 21.957 19.793 19.5664 19.793 16.543V16.3145ZM24.873 16.6836C24.873 18.4883 25.2129 19.8711 25.8926 20.832C26.5723 21.7812 27.5449 22.2559 28.8105 22.2559C30.041 22.2559 31.002 21.7871 31.6934 20.8496C32.3848 19.9004 32.7305 18.3887 32.7305 16.3145C32.7305 14.5449 32.3848 13.1738 31.6934 12.2012C31.002 11.2285 30.0293 10.7422 28.7754 10.7422C27.5332 10.7422 26.5723 11.2285 25.8926 12.2012C25.2129 13.1621 24.873 14.6562 24.873 16.6836ZM52.3301 24.0664C51.0762 25.5898 49.3418 26.3516 47.127 26.3516C45.0879 26.3516 43.5293 25.7656 42.4512 24.5938C41.3848 23.4219 40.8398 21.7051 40.8164 19.4434V6.98047H45.8965V19.2676C45.8965 21.248 46.7988 22.2383 48.6035 22.2383C50.3262 22.2383 51.5098 21.6406 52.1543 20.4453V6.98047H57.252V26H52.4707L52.3301 24.0664ZM71.7715 11.7441C71.0801 11.6504 70.4707 11.6035 69.9434 11.6035C68.0215 11.6035 66.7617 12.2539 66.1641 13.5547V26H61.084V6.98047H65.8828L66.0234 9.24805C67.043 7.50195 68.4551 6.62891 70.2598 6.62891C70.8223 6.62891 71.3496 6.70508 71.8418 6.85742L71.7715 11.7441ZM80.0684 21.9043H89.3672V26H73.582V22.9062L82.5293 11.0938H73.8457V6.98047H89.0859V9.98633L80.0684 21.9043Z" fill="#6C63FF"/>
</svg>
