<svg width="59" height="48" viewBox="0 0 59 48" fill="none" xmlns="http://www.w3.org/2000/svg">
<g clip-path="url(#clip0_401_234)">
<path d="M47.7064 28.3016C47.1642 28.5584 46.2118 28.7696 45.1097 28.9394C42.1129 29.4018 38.0061 29.5659 38.0061 29.5659C38.0061 29.5659 16.8947 31.817 1.07208 23.4448C1.07208 23.4448 -1.22936 21.8936 0.905593 19.8059C1.23435 19.494 1.58385 19.2199 1.95004 18.9868L1.97612 18.9533C2.21896 18.6647 2.4814 18.4047 2.76029 18.1763C3.57997 17.4949 4.96405 16.6872 6.64893 17.0532L48.2058 25.6944C48.2058 25.6944 49.7237 27.3433 47.7064 28.3016Z" fill="#3F3D56"/>
<path d="M39.4268 24.3853L48.1264 16.4497L51.9606 17.3023L48.2063 25.6945C48.2063 25.6945 39.5267 25.7837 39.4268 24.3853Z" fill="#3F3D56"/>
<path d="M17.5249 19.564L34.8537 13.3159L37.6468 14.0665L29.819 18.5937L27.3728 22.1127L17.5249 19.564Z" fill="#3F3D56"/>
<path d="M45.1097 28.9397C42.1129 29.402 38.0061 29.5661 38.0061 29.5661C38.0061 29.5661 16.8947 31.8172 1.07208 23.445C1.07208 23.445 -1.22936 21.8939 0.905593 19.8062L0.912808 19.8447C0.912808 19.8447 4.32695 22.8114 20.6396 25.288L45.1097 28.9397Z" fill="#6C63FF"/>
<path d="M42.325 28.7684L50.0723 32.8354L52.0186 32.5578L47.3846 28.0799C47.3846 28.0799 41.7795 26.5423 42.325 28.7684Z" fill="#3F3D56"/>
<path d="M3.72264 20.279C3.35303 20.2868 2.50615 19.4898 1.97949 18.9533C2.22233 18.6647 2.48477 18.4047 2.76366 18.1763C3.1882 18.5951 3.94351 19.2729 4.36362 19.2465C4.97019 19.2144 4.27926 20.2661 3.72264 20.279Z" fill="#6C63FF"/>
<path d="M38.9193 42.8266L33.9452 43.1612L19.96 31.0374L17.3639 28.7863L16.103 27.6925C18.4688 25.1239 28.1213 28.6665 28.1213 28.6665C28.3062 28.867 28.365 29.2002 28.3567 29.5683C28.3406 30.2576 28.0886 31.0667 27.9915 31.3578C27.9682 31.4291 27.9538 31.467 27.9538 31.467L38.9193 42.8266Z" fill="#3F3D56"/>
<path d="M22.5376 36.5404L21.6746 37.2425L22.1974 36.0203C22.0494 35.8684 21.8662 35.7843 21.6768 35.7812H21.663C21.6031 35.7827 21.5433 35.777 21.4843 35.7641L21.1923 36.0024L21.3172 35.7099C21.1104 35.6166 20.9317 35.4418 20.8066 35.2104L20.2844 35.6385L20.6141 34.8665C20.3088 34.3949 19.897 34.106 19.4436 34.106C18.9003 34.106 18.4164 34.5212 18.1039 35.1691C18.0113 35.3631 17.8803 35.5221 17.7243 35.6298C17.5684 35.7376 17.393 35.7904 17.216 35.7827H17.1871C16.5872 35.7827 16.1011 36.6567 16.1011 37.7355C16.1011 38.8143 16.5872 39.6884 17.1871 39.6884C17.319 39.6878 17.4487 39.6459 17.5651 39.5663C17.7693 39.4389 17.9927 39.37 18.2196 39.3644C18.4466 39.3587 18.6718 39.4164 18.8798 39.5335C19.0557 39.6344 19.2461 39.6866 19.4386 39.6866C19.6312 39.6866 19.8216 39.6344 19.9975 39.5335C20.2037 39.4186 20.4267 39.362 20.6515 39.3675C20.8762 39.3731 21.0974 39.4406 21.3 39.5656C21.4157 39.6432 21.5441 39.6841 21.6746 39.6848C22.2745 39.6848 22.7607 38.8108 22.7607 37.7319C22.765 37.317 22.6883 36.9073 22.5376 36.5404Z" fill="#F2F2F2"/>
<path opacity="0.03" d="M20.9143 39.3981C20.601 39.3218 20.277 39.367 19.9837 39.5279C19.8079 39.6291 19.6176 39.6814 19.4251 39.6814C19.2326 39.6814 19.0422 39.6291 18.8665 39.5279C18.6586 39.4105 18.4334 39.3526 18.2063 39.3583C17.9793 39.3639 17.756 39.433 17.5518 39.5608C17.4351 39.6401 17.3053 39.682 17.1733 39.6828C16.6405 39.6828 16.1971 38.9921 16.105 38.0817C16.2116 37.9821 16.3021 37.8568 16.3714 37.7128C16.6838 37.0656 17.1677 36.6504 17.7111 36.6504C18.2544 36.6504 18.7333 37.0571 19.0452 37.6992C19.1383 37.8928 19.2687 38.0521 19.4238 38.1617C19.5789 38.2714 19.7534 38.3276 19.9304 38.325H19.9443C20.3682 38.3236 20.7356 38.7602 20.9143 39.3981Z" fill="black"/>
<path d="M46.9008 35.6132L46.0379 36.3153L46.5606 35.093C46.4126 34.9412 46.2294 34.8571 46.0401 34.854H46.0262C45.9664 34.8555 45.9065 34.8498 45.8475 34.8369L45.5556 35.0752L45.6805 34.7827C45.4737 34.6893 45.295 34.5146 45.1699 34.2832L44.6477 34.7113L44.9773 33.9393C44.6721 33.4677 44.2603 33.1787 43.8069 33.1787C43.2636 33.1787 42.7797 33.594 42.4672 34.2418C42.3746 34.4358 42.2436 34.5948 42.0876 34.7026C41.9316 34.8104 41.7563 34.8631 41.5793 34.8554H41.5504C40.9505 34.8554 40.4644 35.7295 40.4644 36.8083C40.4644 37.8871 40.9505 38.7611 41.5504 38.7611C41.6822 38.7606 41.812 38.7187 41.9284 38.6391C42.1326 38.5117 42.3559 38.4428 42.5829 38.4372C42.8099 38.4315 43.0351 38.4892 43.2431 38.6063C43.4189 38.7072 43.6093 38.7593 43.8019 38.7593C43.9945 38.7593 44.1849 38.7072 44.3608 38.6063C44.567 38.4914 44.79 38.4348 45.0147 38.4403C45.2394 38.4459 45.4606 38.5134 45.6633 38.6384C45.7789 38.716 45.9074 38.7569 46.0379 38.7576C46.6378 38.7576 47.1239 37.8835 47.1239 36.8047C47.1282 36.3898 47.0515 35.9801 46.9008 35.6132Z" fill="#F2F2F2"/>
<path opacity="0.03" d="M45.2776 38.4703C44.9642 38.3941 44.6403 38.4393 44.3469 38.6002C44.1712 38.7013 43.9809 38.7536 43.7883 38.7536C43.5958 38.7536 43.4055 38.7013 43.2298 38.6002C43.0219 38.4828 42.7966 38.4249 42.5696 38.4305C42.3426 38.4362 42.1192 38.5053 41.9151 38.633C41.7984 38.7124 41.6685 38.7542 41.5366 38.755C41.0038 38.755 40.5604 38.0644 40.4683 37.1539C40.5749 37.0544 40.6653 36.9291 40.7346 36.7851C41.0471 36.1379 41.531 35.7227 42.0743 35.7227C42.6176 35.7227 43.0966 36.1294 43.4085 36.7715C43.5018 36.9656 43.6326 37.1252 43.7883 37.2349C43.9439 37.3446 44.119 37.4005 44.2964 37.3972H44.3103C44.7315 37.3958 45.0989 37.8325 45.2776 38.4703Z" fill="black"/>
<path d="M46.9008 12.2103L46.0378 12.9124L46.5606 11.6902C46.4126 11.5384 46.2294 11.4543 46.04 11.4512H46.0262C45.9663 11.4527 45.9065 11.447 45.8475 11.4341L45.5556 11.6724L45.6804 11.3798C45.4736 11.2865 45.295 11.1117 45.1699 10.8804L44.6476 11.3085L44.9773 10.5365C44.6721 10.0648 44.2603 9.77588 43.8069 9.77588C43.2636 9.77588 42.7796 10.1911 42.4672 10.839C42.3746 11.033 42.2436 11.192 42.0876 11.2998C41.9316 11.4076 41.7562 11.4603 41.5793 11.4526H41.5504C40.9505 11.4526 40.4644 12.3266 40.4644 13.4055C40.4644 14.4843 40.9505 15.3583 41.5504 15.3583C41.6822 15.3578 41.812 15.3159 41.9283 15.2363C42.1326 15.1089 42.3559 15.04 42.5829 15.0343C42.8099 15.0287 43.0351 15.0864 43.243 15.2035C43.4187 15.3049 43.609 15.3577 43.8016 15.3583C43.9942 15.3589 44.1847 15.3074 44.3607 15.2071C44.567 15.0921 44.79 15.0355 45.0147 15.0411C45.2394 15.0466 45.4606 15.1142 45.6632 15.2392C45.7789 15.3168 45.9073 15.3576 46.0378 15.3583C46.6377 15.3583 47.1239 14.4843 47.1239 13.4055C47.1287 12.9893 47.0519 12.5784 46.9008 12.2103Z" fill="#F2F2F2"/>
<path opacity="0.03" d="M45.2776 15.0675C44.9642 14.9913 44.6403 15.0365 44.3469 15.1974C44.1712 15.2985 43.9809 15.3508 43.7883 15.3508C43.5958 15.3508 43.4055 15.2985 43.2298 15.1974C43.0219 15.0799 42.7966 15.022 42.5696 15.0277C42.3426 15.0334 42.1192 15.1025 41.9151 15.2302C41.7984 15.3095 41.6685 15.3514 41.5366 15.3522C41.0038 15.3522 40.5604 14.6615 40.4683 13.7511C40.5749 13.6516 40.6653 13.5263 40.7346 13.3822C41.0471 12.7351 41.531 12.3198 42.0743 12.3198C42.6176 12.3198 43.0966 12.7265 43.4085 13.3687C43.5018 13.5627 43.6326 13.7224 43.7883 13.8321C43.9439 13.9417 44.119 13.9977 44.2964 13.9944H44.3103C44.7315 13.993 45.0989 14.4296 45.2776 15.0675Z" fill="black"/>
<path d="M11.2706 9.68493L10.8405 10.0353L11.1013 9.42593C11.0276 9.34976 10.9361 9.30755 10.8416 9.30606H10.8349C10.805 9.30646 10.7751 9.30359 10.7456 9.2975L10.6002 9.41594L10.6623 9.27324C10.5591 9.22677 10.47 9.13963 10.4076 9.02423L10.1473 9.23828L10.3138 8.8537C10.2446 8.73859 10.1562 8.64478 10.0552 8.57912C9.95424 8.51345 9.84312 8.47758 9.72997 8.47412C9.45915 8.47412 9.21774 8.68104 9.06401 9.00425C9.01775 9.10128 8.95225 9.18075 8.87424 9.23453C8.79623 9.28832 8.7085 9.31448 8.62004 9.31034H8.60561C8.30648 9.31034 8.06396 9.747 8.06396 10.285C8.06396 10.823 8.30648 11.2589 8.60561 11.2589C8.6714 11.2586 8.73615 11.2378 8.7943 11.1983C8.89617 11.1345 9.0076 11.1 9.12088 11.0972C9.23415 11.0943 9.34655 11.1232 9.45027 11.1818C9.53762 11.2318 9.63216 11.2576 9.72775 11.2576C9.82335 11.2576 9.91788 11.2318 10.0052 11.1818C10.1081 11.1245 10.2194 11.0962 10.3316 11.0991C10.4437 11.1019 10.554 11.1357 10.6551 11.1983C10.7128 11.2366 10.7766 11.2569 10.8416 11.2575C11.1407 11.2575 11.3832 10.8215 11.3832 10.2836C11.3853 10.075 11.3466 9.86916 11.2706 9.68493Z" fill="#F2F2F2"/>
<path opacity="0.03" d="M10.4612 11.1108C10.3048 11.0723 10.143 11.0949 9.99669 11.1758C9.90926 11.2254 9.81477 11.2511 9.7192 11.2514C9.62255 11.2514 9.52701 11.2248 9.43895 11.1736C9.33516 11.1153 9.22276 11.0866 9.1095 11.0895C8.99624 11.0925 8.88484 11.127 8.78298 11.1907C8.72503 11.2303 8.66046 11.2511 8.59484 11.2514C8.32902 11.2514 8.10759 10.9068 8.06152 10.453C8.11455 10.403 8.15974 10.3405 8.19472 10.2689C8.35011 9.94568 8.59152 9.73877 8.86067 9.73877C9.12983 9.73877 9.37013 9.94354 9.52663 10.2625C9.57327 10.3595 9.63872 10.4392 9.71655 10.4939C9.79438 10.5485 9.88193 10.5762 9.9706 10.5743H9.97782C10.187 10.5743 10.3718 10.7926 10.4612 11.1108Z" fill="black"/>
<path d="M49.5635 44.5751L49.1334 44.9254L49.3943 44.3161C49.3205 44.2399 49.2291 44.1977 49.1345 44.1962H49.1279C49.098 44.1966 49.0681 44.1937 49.0385 44.1876L48.8931 44.3061L48.9553 44.1634C48.8521 44.1169 48.763 44.0298 48.7006 43.9144L48.4403 44.1284L48.6068 43.7438C48.5375 43.6287 48.4492 43.5349 48.3482 43.4693C48.2472 43.4036 48.1361 43.3677 48.0229 43.3643C47.7521 43.3643 47.5107 43.5712 47.357 43.8944C47.3107 43.9914 47.2452 44.0709 47.1672 44.1247C47.0892 44.1785 47.0015 44.2046 46.913 44.2005H46.8986C46.5995 44.2005 46.3569 44.6371 46.3569 45.1751C46.3569 45.7131 46.5995 46.149 46.8986 46.149C46.9644 46.1488 47.0291 46.128 47.0873 46.0884C47.1891 46.0246 47.3006 45.9902 47.4138 45.9873C47.5271 45.9845 47.6395 46.0134 47.7432 46.072C47.8306 46.1219 47.9251 46.1477 48.0207 46.1477C48.1163 46.1477 48.2108 46.1219 48.2982 46.072C48.4011 46.0146 48.5124 45.9864 48.6245 45.9892C48.7367 45.992 48.847 46.0259 48.9481 46.0884C49.0057 46.1268 49.0696 46.147 49.1345 46.1476C49.4337 46.1476 49.6762 45.7117 49.6762 45.1737C49.6783 44.9652 49.6395 44.7593 49.5635 44.5751Z" fill="#F2F2F2"/>
<path opacity="0.03" d="M48.7537 46.001C48.5973 45.9625 48.4355 45.9851 48.2892 46.0659C48.2017 46.1155 48.1073 46.1413 48.0117 46.1415C47.915 46.1415 47.8195 46.115 47.7314 46.0638C47.6276 46.0054 47.5152 45.9767 47.402 45.9797C47.2887 45.9826 47.1773 46.0171 47.0755 46.0809C47.0175 46.1204 46.9529 46.1412 46.8873 46.1415C46.6215 46.1415 46.4001 45.7969 46.354 45.3431C46.407 45.2931 46.4522 45.2306 46.4872 45.159C46.6426 44.8358 46.884 44.6289 47.1532 44.6289C47.4223 44.6289 47.6626 44.8337 47.8191 45.1526C47.8657 45.2496 47.9312 45.3293 48.009 45.384C48.0869 45.4387 48.1744 45.4664 48.2631 45.4644H48.2703C48.4795 45.4644 48.6643 45.6827 48.7537 46.001Z" fill="black"/>
<path d="M9.60601 46.4305L9.17591 46.7809L9.43674 46.1715C9.36303 46.0954 9.27158 46.0532 9.17702 46.0517H9.17036C9.14044 46.0521 9.11055 46.0492 9.08101 46.0431L8.93561 46.1615L8.99776 46.0188C8.89459 45.9724 8.80545 45.8852 8.74303 45.7698L8.48276 45.9839L8.64925 45.5993C8.58002 45.4842 8.49168 45.3904 8.39069 45.3247C8.28969 45.2591 8.17857 45.2232 8.06542 45.2197C7.7946 45.2197 7.55319 45.4266 7.39946 45.7499C7.3532 45.8469 7.2877 45.9264 7.20969 45.9801C7.13168 46.0339 7.04395 46.0601 6.95549 46.0559H6.94106C6.64193 46.0559 6.39941 46.4926 6.39941 47.0306C6.39941 47.5686 6.64193 48.0045 6.94106 48.0045C7.00685 48.0042 7.0716 47.9834 7.12975 47.9439C7.23162 47.8801 7.34305 47.8456 7.45633 47.8428C7.5696 47.84 7.682 47.8688 7.78572 47.9275C7.87307 47.9774 7.96761 48.0032 8.0632 48.0032C8.1588 48.0032 8.25333 47.9774 8.34068 47.9275C8.44358 47.8701 8.55487 47.8418 8.66701 47.8447C8.77914 47.8475 8.88949 47.8813 8.99055 47.9439C9.04821 47.9822 9.1121 48.0025 9.17702 48.0031C9.47614 48.0031 9.71866 47.5671 9.71866 47.0292C9.72077 46.8206 9.68203 46.6148 9.60601 46.4305Z" fill="#F2F2F2"/>
<path opacity="0.03" d="M8.79615 47.8559C8.63975 47.8174 8.47796 47.8401 8.33165 47.9209C8.24422 47.9705 8.14973 47.9963 8.05417 47.9965C7.95751 47.9965 7.86197 47.97 7.77391 47.9187C7.67012 47.8604 7.55772 47.8317 7.44446 47.8346C7.3312 47.8376 7.2198 47.8721 7.11794 47.9359C7.05999 47.9754 6.99542 47.9962 6.92981 47.9965C6.66398 47.9965 6.44255 47.6519 6.39648 47.1981C6.44951 47.1481 6.4947 47.0856 6.52968 47.014C6.68507 46.6908 6.92648 46.4839 7.19563 46.4839C7.46479 46.4839 7.70509 46.6887 7.86159 47.0076C7.90823 47.1046 7.97368 47.1843 8.05151 47.239C8.12934 47.2936 8.21689 47.3214 8.30556 47.3194H8.31278C8.522 47.3194 8.7068 47.5377 8.79615 47.8559Z" fill="black"/>
<path d="M29.4746 2.43495L28.6116 3.13703L29.1344 1.91481C28.9864 1.76296 28.8032 1.67886 28.6138 1.67579H28.5999C28.5401 1.67729 28.4803 1.67156 28.4213 1.65866L28.1293 1.89697L28.2542 1.60444C28.0474 1.51111 27.8687 1.33635 27.7436 1.10499L27.2214 1.53309L27.5511 0.76108C27.2458 0.289456 26.834 0.000488281 26.3806 0.000488281C25.8373 0.000488281 25.3534 0.415745 25.041 1.0636C24.9483 1.25761 24.8173 1.4166 24.6614 1.52438C24.5054 1.63216 24.33 1.6849 24.153 1.67721H24.1242C23.5242 1.67721 23.0381 2.55125 23.0381 3.63006C23.0381 4.70887 23.5242 5.58291 24.1242 5.58291C24.256 5.58237 24.3857 5.54049 24.5021 5.4609C24.7063 5.33351 24.9297 5.2646 25.1566 5.25893C25.3836 5.25327 25.6089 5.31098 25.8168 5.42808C25.9925 5.52954 26.1828 5.5823 26.3754 5.58291C26.5679 5.58353 26.7584 5.53199 26.9345 5.43165C27.1407 5.31674 27.3637 5.26014 27.5885 5.26568C27.8132 5.27121 28.0344 5.33877 28.237 5.46376C28.3527 5.54137 28.4811 5.58223 28.6116 5.58291C29.2115 5.58291 29.6977 4.70887 29.6977 3.63006C29.7025 3.21394 29.6257 2.80296 29.4746 2.43495Z" fill="#F2F2F2"/>
<path opacity="0.03" d="M27.8513 5.29261C27.5379 5.21638 27.214 5.26158 26.9206 5.42247C26.7449 5.52361 26.5546 5.5759 26.3621 5.5759C26.1696 5.5759 25.9792 5.52361 25.8035 5.42247C25.5956 5.30503 25.3703 5.24714 25.1433 5.25281C24.9163 5.25848 24.693 5.32757 24.4888 5.45529C24.3721 5.53464 24.2423 5.5765 24.1103 5.5773C23.5775 5.5773 23.1341 4.88663 23.042 3.9762C23.1486 3.87667 23.2391 3.75138 23.3084 3.60732C23.6208 2.96018 24.1048 2.54492 24.6481 2.54492C25.1914 2.54492 25.6703 2.95162 25.9822 3.59377C26.0755 3.78784 26.2064 3.9475 26.362 4.05716C26.5176 4.16683 26.6927 4.22277 26.8701 4.21951H26.884C27.3052 4.21808 27.6726 4.65474 27.8513 5.29261Z" fill="black"/>
<path d="M58.8868 14.6796L58.4567 15.0299L58.7176 14.4206C58.6438 14.3444 58.5524 14.3022 58.4578 14.3007H58.4512C58.4213 14.3011 58.3914 14.2982 58.3618 14.2921L58.2164 14.4106L58.2786 14.2679C58.1754 14.2214 58.0863 14.1343 58.0238 14.0189L57.7636 14.2329L57.93 13.8483C57.8608 13.7332 57.7725 13.6394 57.6715 13.5737C57.5705 13.5081 57.4594 13.4722 57.3462 13.4688C57.0754 13.4688 56.834 13.6757 56.6802 13.9989C56.634 14.0959 56.5685 14.1754 56.4905 14.2292C56.4125 14.2829 56.3247 14.3091 56.2363 14.305H56.2218C55.9227 14.305 55.6802 14.7416 55.6802 15.2796C55.6802 15.8176 55.9227 16.2535 56.2218 16.2535C56.2876 16.2533 56.3524 16.2325 56.4105 16.1929C56.5124 16.1291 56.6238 16.0946 56.7371 16.0918C56.8504 16.089 56.9628 16.1179 57.0665 16.1765C57.1539 16.2264 57.2484 16.2522 57.344 16.2522C57.4396 16.2522 57.5341 16.2264 57.6215 16.1765C57.7244 16.1191 57.8357 16.0909 57.9478 16.0937C58.0599 16.0965 58.1703 16.1304 58.2714 16.1929C58.329 16.2313 58.3929 16.2515 58.4578 16.2521C58.757 16.2521 58.9995 15.8162 58.9995 15.2782C59.0016 15.0697 58.9628 14.8638 58.8868 14.6796Z" fill="#F2F2F2"/>
<path opacity="0.03" d="M58.077 16.105C57.9206 16.0665 57.7588 16.0891 57.6125 16.1699C57.5251 16.2195 57.4306 16.2453 57.335 16.2455C57.2393 16.245 57.1448 16.2185 57.0576 16.1678C56.9538 16.1094 56.8414 16.0807 56.7281 16.0837C56.6149 16.0866 56.5035 16.1212 56.4016 16.1849C56.3437 16.2244 56.2791 16.2453 56.2135 16.2455C55.9477 16.2455 55.7262 15.9009 55.6802 15.4471C55.7332 15.3971 55.7784 15.3346 55.8134 15.263C55.9688 14.9398 56.2102 14.7329 56.4793 14.7329C56.7485 14.7329 56.9888 14.9377 57.1452 15.2566C57.1916 15.3531 57.2566 15.4325 57.3339 15.4871C57.4112 15.5417 57.4982 15.5698 57.5864 15.5684H57.5936C57.8029 15.5684 57.9877 15.7868 58.077 16.105Z" fill="black"/>
</g>
<defs>
<clipPath id="clip0_401_234">
<rect width="59" height="48" fill="white"/>
</clipPath>
</defs>
</svg>
